<svg width="13" height="10" viewBox="0 0 13 10" fill="none" xmlns="http://www.w3.org/2000/svg">
<path d="M4.10837 0C3.67889 0 2.38406 0.525276 2.15176 0.630251C1.91945 0.735226 1.6616 1.06292 1.36903 1.60377C1.07606 2.14461 0.840961 2.77686 0.458979 3.70686C0.0773956 4.63687 -0.0116139 6.42984 0.00115873 6.97706C0.0139314 7.52429 0.0765973 7.95178 0.637397 8.27549C1.1978 8.59879 1.69354 8.93727 2.21522 9.14083C2.7373 9.3444 3.09334 9.49088 3.33522 9.28732C3.5771 9.08375 3.73636 8.72732 3.73636 8.72732C3.73636 8.72732 3.96547 8.4092 3.5328 8.21841C3.10013 8.02722 2.88379 7.8935 2.90255 7.69632C2.92171 7.49915 2.95324 7.39098 3.06141 7.41652C3.16958 7.44207 3.42463 7.89989 4.40453 8.10984C5.38444 8.31979 6.33959 8.28826 6.33959 8.28826C6.33959 8.28826 7.29514 8.32019 8.27505 8.10984C9.25495 7.89989 9.5096 7.44207 9.61777 7.41652C9.72594 7.39098 9.75747 7.49915 9.77663 7.69593C9.79579 7.8935 9.57945 8.02722 9.14678 8.21841C8.71411 8.4092 8.94322 8.72732 8.94322 8.72732C8.94322 8.72732 9.10248 9.08336 9.34436 9.28732C9.58584 9.49088 9.94228 9.3444 10.464 9.14083C10.9856 8.93727 11.4818 8.59919 12.0422 8.27549C12.603 7.95178 12.6656 7.52429 12.6784 6.97706C12.6912 6.43024 12.6022 4.63687 12.2202 3.70686C11.8386 2.77686 11.6031 2.14461 11.3102 1.60377C11.018 1.06292 10.7597 0.735226 10.5278 0.629852C10.2955 0.525276 9.0003 0 8.57082 0C8.14133 0 8.01441 0.299359 8.01441 0.299359L7.86473 0.630251C7.86473 0.630251 6.85888 0.43906 6.34638 0.438661C5.83387 0.438661 4.81485 0.630251 4.81485 0.630251L4.66517 0.29896C4.66517 0.29896 4.53825 0 4.10837 0ZM4.15507 3.9707H4.17103C4.79729 3.9707 5.30461 4.51873 5.30461 5.19448C5.30461 5.87063 4.79729 6.41826 4.17103 6.41826C3.54477 6.41826 3.03746 5.87063 3.03746 5.19448C3.03706 4.52511 3.53519 3.97988 4.15507 3.9707ZM8.50855 3.9707H8.52451C9.14439 3.97988 9.64212 4.52551 9.64212 5.19448C9.64212 5.87063 9.13481 6.41826 8.50855 6.41826C7.88189 6.41826 7.37497 5.87063 7.37497 5.19448C7.37497 4.51873 7.88189 3.9707 8.50855 3.9707Z" fill="#9A9A9A"/>
</svg>
