<svg width="15" height="14" viewBox="0 0 15 14" fill="none" xmlns="http://www.w3.org/2000/svg">
<path fill-rule="evenodd" clip-rule="evenodd" d="M7.5021 0C3.76976 0 0.743164 3.10263 0.743164 6.92988C0.743164 9.99195 2.67988 12.5896 5.36543 13.5058C5.70337 13.57 5.82729 13.3556 5.82729 13.1726C5.82729 13.0073 5.82081 12.4615 5.818 11.8825C3.9376 12.3015 3.5408 11.0647 3.5408 11.0647C3.23327 10.2637 2.79028 10.0508 2.79028 10.0508C2.17718 9.62049 2.83674 9.62951 2.83674 9.62951C3.51545 9.67823 3.87283 10.3434 3.87283 10.3434C4.4755 11.4029 5.45386 11.0968 5.83968 10.9196C5.90023 10.4718 6.0754 10.166 6.26859 9.99308C4.76754 9.81763 3.18933 9.22341 3.18933 6.56799C3.18933 5.81156 3.45321 5.19311 3.88579 4.70788C3.81538 4.53327 3.58417 3.82837 3.95112 2.87395C3.95112 2.87395 4.51887 2.6878 5.81039 3.58421C6.34942 3.43072 6.92787 3.35384 7.5021 3.35102C8.0766 3.35384 8.65534 3.43072 9.19549 3.58421C10.4853 2.6878 11.0522 2.87395 11.0522 2.87395C11.42 3.82865 11.1885 4.53327 11.1184 4.70788C11.5521 5.19311 11.814 5.81156 11.814 6.56799C11.814 9.22989 10.233 9.81594 8.72771 9.98745C8.97019 10.2026 9.1862 10.6242 9.1862 11.2708C9.1862 12.1979 9.17859 12.9442 9.17859 13.1726C9.17859 13.3571 9.30025 13.5731 9.64271 13.5049C12.3268 12.5877 14.261 9.99083 14.261 6.92988C14.261 3.10263 11.235 0 7.5021 0Z" fill="#9A9A9A"/>
<path fill-rule="evenodd" clip-rule="evenodd" d="M3.30309 9.95079C3.28816 9.98543 3.2355 9.99556 3.18734 9.97191C3.13834 9.94938 3.11074 9.90235 3.12651 9.86771C3.14116 9.83222 3.1941 9.82265 3.2431 9.84602C3.29211 9.86883 3.31999 9.91643 3.30309 9.95079ZM3.57683 10.2639C3.54472 10.2944 3.48164 10.2803 3.43883 10.2318C3.39462 10.1834 3.38645 10.1189 3.41912 10.0879C3.45235 10.057 3.51346 10.0716 3.55768 10.1198C3.60189 10.1688 3.61062 10.233 3.57683 10.2639ZM3.84324 10.663C3.80213 10.6926 3.73425 10.665 3.69229 10.6033C3.65089 10.5413 3.65089 10.4676 3.69342 10.438C3.73538 10.4084 3.80184 10.4352 3.84437 10.4963C3.88577 10.5588 3.88577 10.6329 3.84324 10.663ZM4.20851 11.0488C4.17133 11.0905 4.09248 11.0792 4.03474 11.0221C3.9756 10.9663 3.95927 10.8869 3.99644 10.8449C4.0339 10.803 4.11332 10.8148 4.17133 10.8714C4.23019 10.9272 4.24793 11.0072 4.20851 11.0488ZM4.71205 11.2724C4.69571 11.3268 4.61967 11.3513 4.54307 11.3285C4.46703 11.3045 4.41691 11.2412 4.43211 11.1863C4.44817 11.1316 4.52449 11.1057 4.60165 11.1305C4.67769 11.1542 4.7281 11.2172 4.71205 11.2724ZM5.26543 11.3141C5.26712 11.3713 5.20235 11.4183 5.12181 11.4194C5.04098 11.4214 4.97564 11.3752 4.9748 11.3189C4.9748 11.2612 5.03845 11.2144 5.11899 11.213C5.19953 11.2113 5.26543 11.2572 5.26543 11.3141ZM5.77996 11.2243C5.78953 11.28 5.73377 11.3372 5.65407 11.3524C5.5755 11.3671 5.50284 11.3327 5.49298 11.2775C5.48313 11.2203 5.54002 11.1629 5.61831 11.148C5.69829 11.1339 5.76982 11.168 5.77996 11.2243Z" fill="#9A9A9A"/>
</svg>
