<svg width="14" height="13" viewBox="0 0 14 13" fill="none" xmlns="http://www.w3.org/2000/svg">
<path d="M6.92231 4.22754C6.3195 4.22754 5.74138 4.467 5.31513 4.89325C4.88888 5.31951 4.64941 5.89762 4.64941 6.50043C4.64941 7.10324 4.88888 7.68136 5.31513 8.10761C5.74138 8.53386 6.3195 8.77333 6.92231 8.77333C7.52512 8.77333 8.10324 8.53386 8.52949 8.10761C8.95574 7.68136 9.1952 7.10324 9.1952 6.50043C9.1952 5.89762 8.95574 5.31951 8.52949 4.89325C8.10324 4.467 7.52512 4.22754 6.92231 4.22754Z" fill="black"/>
<path fill-rule="evenodd" clip-rule="evenodd" d="M3.26463 0.263618C5.69559 -0.00584155 8.14889 -0.00584155 10.5799 0.263618C11.9079 0.411881 12.9786 1.45741 13.1346 2.79038C13.4229 5.25535 13.4229 7.74553 13.1346 10.2105C12.9786 11.5435 11.9079 12.589 10.5806 12.738C8.14936 13.0075 5.69582 13.0075 3.26463 12.738C1.93656 12.589 0.86585 11.5435 0.709895 10.2112C0.421572 7.746 0.421572 5.25558 0.709895 2.79038C0.86585 1.45741 1.93656 0.411881 3.26463 0.263618ZM10.419 2.30433C10.2335 2.30433 10.0556 2.37801 9.92448 2.50916C9.79333 2.64032 9.71965 2.8182 9.71965 3.00368C9.71965 3.18916 9.79333 3.36704 9.92448 3.4982C10.0556 3.62935 10.2335 3.70303 10.419 3.70303C10.6045 3.70303 10.7824 3.62935 10.9135 3.4982C11.0447 3.36704 11.1184 3.18916 11.1184 3.00368C11.1184 2.8182 11.0447 2.64032 10.9135 2.50916C10.7824 2.37801 10.6045 2.30433 10.419 2.30433ZM3.60032 6.50044C3.60032 5.61941 3.9503 4.77447 4.57329 4.15149C5.19627 3.5285 6.04121 3.17852 6.92224 3.17852C7.80327 3.17852 8.64821 3.5285 9.27119 4.15149C9.89417 4.77447 10.2442 5.61941 10.2442 6.50044C10.2442 7.38147 9.89417 8.22641 9.27119 8.84939C8.64821 9.47237 7.80327 9.82236 6.92224 9.82236C6.04121 9.82236 5.19627 9.47237 4.57329 8.84939C3.9503 8.22641 3.60032 7.38147 3.60032 6.50044Z" fill="black"/>
</svg>
