<svg width="13" height="11" viewBox="0 0 13 11" fill="none" xmlns="http://www.w3.org/2000/svg">
<path d="M12.3254 1.59213C11.8856 1.7873 11.419 1.91519 10.9412 1.97148C11.4447 1.67051 11.8213 1.19655 12.0008 0.638128C11.5278 0.918999 11.0103 1.1169 10.4705 1.22326C10.2451 0.982677 9.97266 0.790978 9.67008 0.660053C9.36751 0.529129 9.04125 0.461772 8.71156 0.46216C7.38083 0.46216 6.30189 1.5411 6.30189 2.87207C6.30189 3.06068 6.32311 3.24451 6.36436 3.4212C4.36147 3.32058 2.58557 2.36133 1.39695 0.903273C1.18257 1.27107 1.06998 1.68931 1.07076 2.11502C1.07076 2.95099 1.49614 3.68873 2.14279 4.12078C1.7601 4.10864 1.38584 4.00522 1.05121 3.81915L1.05097 3.84967C1.05097 5.01707 1.8817 5.99086 2.98424 6.21261C2.62923 6.30871 2.257 6.32274 1.89577 6.25362C2.20264 7.21096 3.0925 7.90792 4.14688 7.92723C3.2933 8.59728 2.23913 8.96068 1.15398 8.95896C0.959651 8.95896 0.767707 8.94752 0.579102 8.9251C1.68095 9.6333 2.96344 10.0092 4.27325 10.0079C8.70608 10.0079 11.1298 6.33588 11.1298 3.15128C11.1298 3.04685 11.1277 2.94265 11.1231 2.83917C11.595 2.49849 12.0022 2.07616 12.3254 1.59213Z" fill="#9A9A9A"/>
</svg>
