<svg width="13" height="11" viewBox="0 0 13 11" fill="none" xmlns="http://www.w3.org/2000/svg">
<path d="M12.842 3.11201C12.842 2.99936 12.673 2.09817 12.2787 1.7039C11.7718 1.14065 11.2086 1.08433 10.9269 1.08433H10.8706C9.12456 0.97168 6.53363 0.97168 6.47731 0.97168C6.47731 0.97168 3.83006 0.97168 2.084 1.08433H2.02768C1.74606 1.08433 1.18281 1.14065 0.675893 1.7039C0.281622 2.15449 0.112649 3.05568 0.112649 3.16833C0.112649 3.22466 0 4.2385 0 5.30866V6.26618C0 7.33634 0.112649 8.35018 0.112649 8.40651C0.112649 8.51916 0.281622 9.42035 0.675893 9.81462C1.12649 10.3215 1.68973 10.3779 2.02768 10.4342H2.19665C3.21049 10.5468 6.30834 10.5468 6.42098 10.5468C6.42098 10.5468 9.06823 10.5468 10.8143 10.4342H10.8706C11.1522 10.3779 11.7155 10.3215 12.2224 9.81462C12.6167 9.36402 12.7856 8.46283 12.7856 8.35018C12.7856 8.29386 12.8983 7.28002 12.8983 6.20985V5.25234C12.9546 4.2385 12.842 3.16833 12.842 3.11201ZM8.67396 5.87191L5.2945 7.67429C5.23817 7.67429 5.23817 7.73061 5.18185 7.73061C5.12552 7.73061 5.0692 7.73061 5.0692 7.67429C5.01287 7.61796 4.95655 7.56164 4.95655 7.44899V3.7879C4.95655 3.67525 5.01287 3.61893 5.0692 3.5626C5.12552 3.50628 5.23817 3.50628 5.35082 3.5626L8.73029 5.36499C8.84294 5.42131 8.89926 5.47764 8.89926 5.59028C8.89926 5.70293 8.78661 5.81558 8.67396 5.87191Z" fill="#9A9A9A"/>
</svg>
