<svg width="27" height="32" viewBox="0 0 27 32" fill="none" xmlns="http://www.w3.org/2000/svg">
<path d="M12.992 31.04C10.5173 31.04 8.27733 30.4853 6.272 29.376C4.30933 28.224 2.77333 26.6453 1.664 24.64C0.554668 22.6347 2.417 7.12934 2.417 4.484L0 8.832V0H5.76V17.408C5.76 19.072 6.03733 20.5227 6.592 21.76C7.18933 22.9547 8.04267 23.872 9.152 24.512C10.2613 25.152 9.42367 30.9026 10.917 30.9026C13.1783 30.9026 17.088 24.768 18.368 23.36C19.648 21.9093 20.288 19.9253 20.288 17.408V8.704V0H26.048V8.832L23.917 5.76C23.917 8.40533 25.4933 22.6347 24.384 24.64C23.2747 26.6453 21.7387 28.224 19.776 29.376C17.856 30.4853 15.5947 31.04 12.992 31.04Z" fill="white"/>
</svg>
